<svg width="32" height="22" viewBox="0 0 32 22" fill="none" xmlns="http://www.w3.org/2000/svg">
<path fill-rule="evenodd" clip-rule="evenodd" d="M1.64314 0.138281C-0.587849 1.07044 -0.533765 4.51893 1.72478 5.34207L2.07997 5.47154V7.8629V10.2543L1.69428 10.3116C1.19057 10.3864 0.630886 10.8048 0.304867 11.3503L0.0435405 11.7874L0.0131361 14.7332C-0.0202046 17.9606 0.0121889 18.2399 0.488715 18.8412C1.0001 19.4864 1.41989 19.6578 2.60376 19.7048L3.64841 19.7464L3.82743 20.2257C4.03978 20.7946 4.56774 21.4079 5.13074 21.7398C5.71885 22.0867 7.06034 22.0867 7.64853 21.7398C8.196 21.4171 8.75096 20.7643 8.96255 20.1943L9.13646 19.7259H14.5827H20.029L20.2108 20.2155C20.4253 20.7932 20.9501 21.4056 21.5169 21.7398C22.105 22.0867 23.4465 22.0867 24.0347 21.7398C24.5796 21.4186 25.1366 20.7654 25.3476 20.2002L25.5204 19.7375L27.9842 19.7051C30.3186 19.6744 30.4686 19.6604 30.8413 19.4397C31.3152 19.159 31.7906 18.548 31.9255 18.0464C31.9872 17.8166 32.0128 16.5597 31.9939 14.6887L31.9635 11.6984L31.7091 11.1643C31.4263 10.5706 30.9771 10.0885 30.3743 9.73163C29.9991 9.5095 29.8316 9.49166 27.6627 9.44245L25.3511 9.38999L24.5858 7.40469C24.0559 6.02996 23.8571 5.40576 23.9397 5.37522C24.3111 5.23808 24.9864 4.60077 25.2358 4.1519C25.476 3.71971 25.5278 3.50597 25.5543 2.84033C25.5826 2.13008 25.5568 1.98382 25.3134 1.47C25.0096 0.828587 24.4305 0.276258 23.8864 0.108902C23.3568 -0.0540476 2.03593 -0.0258227 1.64314 0.138281ZM23.6766 1.74774C24.3465 2.18611 24.3079 3.36926 23.6109 3.7642C23.4621 3.84845 20.4056 3.8814 12.7325 3.8814H2.06103L1.73899 3.52465C1.47501 3.23222 1.41695 3.08847 1.41695 2.72722C1.41695 2.36596 1.47501 2.22221 1.73899 1.92978L2.06103 1.57303H12.7354C22.5244 1.57303 23.4318 1.58751 23.6766 1.74774ZM16.3824 7.81611V10.1769H9.94156H3.50074V7.88609C3.50074 6.62604 3.52916 5.56367 3.56392 5.52527C3.59859 5.48676 6.49695 5.45528 10.0047 5.45528H16.3824V7.81611ZM23.2277 7.86857C24.2109 10.3764 24.26 10.6187 23.8951 11.162C23.4784 11.7826 23.3886 11.8003 20.4789 11.8369L17.8031 11.8703V8.66086V5.4515L20.0527 5.47962L22.3022 5.50774L23.2277 7.86857ZM29.9864 11.3028C30.5543 11.7516 30.5901 11.9663 30.5901 14.929C30.5901 17.405 30.5766 17.6218 30.4091 17.8511C30.2291 18.0977 30.2169 18.0989 27.8978 18.1303L25.5674 18.1618L25.3838 17.6875C24.4153 15.1846 21.1623 15.163 20.1712 17.6529L19.9728 18.1513H14.5827H9.19272L9.00726 17.6869C8.53973 16.5162 7.54472 15.7983 6.38964 15.7983C5.23077 15.7983 4.23954 16.5161 3.76813 17.6967L3.57879 18.1709L2.67878 18.1349C1.3532 18.0818 1.41695 18.2431 1.41695 14.9394C1.41695 12.4153 1.4269 12.2644 1.60639 12.0656C1.79251 11.8594 1.92208 11.8557 9.0891 11.8557H16.3824V12.3804C16.3824 12.9946 16.5766 13.2769 17.07 13.3794C17.6754 13.5052 23.3154 13.3714 23.6921 13.2223C24.3378 12.9667 24.9304 12.3719 25.2378 11.6707L25.5227 11.0212L27.6064 11.045C29.5924 11.0676 29.7042 11.0798 29.9864 11.3028ZM7.18754 17.621C7.57844 17.9294 7.77887 18.3849 7.77887 18.9656C7.77887 20.0365 6.64661 20.8042 5.79292 20.3122C4.94576 19.8239 4.72876 18.7179 5.31743 17.8888C5.7465 17.2845 6.60503 17.1615 7.18754 17.621ZM23.393 17.5062C23.5745 17.613 23.8227 17.8608 23.9446 18.0571C24.1292 18.3543 24.1597 18.5136 24.128 19.0154C24.0872 19.6618 23.878 20.0208 23.3726 20.3122C22.3714 20.8892 21.111 19.77 21.404 18.5643C21.657 17.5234 22.5843 17.0301 23.393 17.5062Z" fill="#FF9E9B"/>
</svg>
