<svg width="28" height="28" xmlns="http://www.w3.org/2000/svg">
 <g id="Layer_1">
  <title>Layer 1</title>
  <path d="m4.03675,5.64472c0,0 0.15314,-0.15314 0.30628,-0.15314c0,0 0.59396,-0.22871 1.07198,-0.30628c0.45349,-0.07359 1.07198,0 1.53139,0c0.61256,0 1.22511,0 1.83767,0c0.45942,0 0.91884,0 1.37825,0c0.45942,0 0.91884,0 1.37825,0c0.45942,0 0.7657,0 1.22511,0c0.15314,0 0.58557,-0.07447 0.91884,-0.15314c0.29809,-0.07037 0.61256,0 0.91884,0c0.15314,0 0.61256,0 0.7657,0c0.45942,0 0.61256,0 0.91884,0c0.15314,0 0.45942,0 0.7657,0c0.45942,0 0.77163,0.07955 1.22511,0.15314c0.47802,0.07757 1.07593,0.25722 1.37825,0.30628c0.47802,0.07757 0.87189,0.2234 1.07198,0.30628c0.42445,0.17581 0.61256,0.15314 0.91884,0.15314c0.15314,0 0.31038,0.11796 0.45942,0.15314c0.33327,0.07867 0.45942,0.30628 0.45942,0.30628c0.15314,0.15314 0.2234,0.10619 0.30628,0.30628c0.0586,0.14148 0.2592,0.33476 0.45942,0.61256c0.12663,0.17569 0.2592,0.4879 0.45942,0.7657c0.12663,0.17569 0.30628,0.30628 0.30628,0.45942c0,0.15314 0.15314,0.15314 0.15314,0.30628c0,0 -0.10829,0.04485 0,0.15314c0.10829,0.10829 0.15314,0.15314 0.15314,0.15314c0.15314,0.15314 0.15314,0.15314 0.15314,0.15314c0,0.15314 0,0.15314 0,0.30628c0,0 0,0 0,0.15314c0,0 0,0.15314 0,0.15314c0,0.15314 -0.07026,0.10619 -0.15314,0.30628c-0.0586,0.14148 0.11721,0.32959 0,0.61256c-0.08288,0.20009 -0.11795,0.31038 -0.15314,0.45942c-0.07867,0.33327 -0.15314,0.45942 -0.15314,0.45942c0,0.15314 -0.15314,0.30628 -0.15314,0.45942c0,0 0,0.15314 0,0.30628c0,0.15314 -0.15314,0.30628 -0.15314,0.45942c0,0 -0.07026,0.10619 -0.15314,0.30628c-0.05861,0.14148 0,0.30628 0,0.45942c0,0.15314 -0.15314,0.30628 -0.15314,0.7657c0,0.15314 -0.2234,0.41247 -0.30628,0.61256c-0.17581,0.42445 -0.15314,0.61256 -0.15314,0.91884c0,0.30628 -0.12096,0.77771 -0.30628,1.22511c-0.26208,0.63273 -0.41234,0.94732 -0.61256,1.22512c-0.25326,0.35138 -0.41233,0.64104 -0.61256,0.91883c-0.12663,0.17569 -0.42833,0.34556 -0.61256,0.45942c-0.41194,0.25459 -0.75561,0.48152 -1.07198,0.61256c-0.4474,0.18532 -0.90471,0.38227 -1.53139,0.45942c-0.45598,0.05613 -1.06335,0.18198 -1.53139,0.30628c-0.7547,0.20042 -1.53139,0.15314 -2.14395,0.15314c-0.7657,0 -1.39874,0.17592 -2.14395,0c-0.66654,-0.15735 -1.38211,-0.28811 -2.14395,-0.45942c-0.61603,-0.13852 -1.23144,-0.28288 -1.83767,-0.45942c-0.46496,-0.1354 -0.93085,-0.12096 -1.37825,-0.30628c-0.31636,-0.13104 -0.59001,-0.17965 -0.7657,-0.30628c-0.27779,-0.20022 -0.45942,-0.30628 -0.61256,-0.45942c-0.15314,-0.15314 -0.22577,-0.17601 -0.30628,-0.30628c-0.18003,-0.29129 -0.30628,-0.30628 -0.45942,-0.45942c-0.15314,-0.15314 -0.35796,-0.50689 -0.61256,-0.91884c-0.22772,-0.36845 -0.48856,-0.74755 -0.7657,-1.22511c-0.34375,-0.59234 -0.50361,-1.0518 -0.7657,-1.68453c-0.18532,-0.44741 -0.17524,-0.90875 -0.30628,-1.22511c-0.18532,-0.44741 -0.30628,-0.61256 -0.30628,-0.91884c0,-0.15314 0,-0.45942 0,-0.45942c0,-0.30628 0,-0.61256 0,-0.7657c0,-0.15314 -0.04708,-0.33476 0.15314,-0.61256c0.12663,-0.17569 0.15314,-0.30628 0.30628,-0.61256c0.15314,-0.30628 0.30628,-0.45942 0.45942,-0.61256c0.15314,-0.15314 0.16813,-0.27939 0.45942,-0.45942c0.13027,-0.08051 0.31447,-0.08277 0.61256,-0.15314c0.33327,-0.07867 0.7471,-0.22871 1.22511,-0.30628c0.45349,-0.07359 0.91884,0 1.37825,0c0.61256,0 1.23302,-0.09812 1.83767,0c0.47802,0.07757 1.0783,0.12974 1.68453,0.30628c0.46496,0.1354 1.20494,0.19733 1.83767,0.45942c0.44741,0.18532 0.89184,0.38074 1.22511,0.45942c0.44713,0.10555 0.62075,-0.07037 0.91884,0c0.33327,0.07867 0.30628,0.15314 0.45942,0.15314c0,0 0.15314,0.15314 0.15314,0.15314c0.15314,0 0.30628,0 0.45942,0.15314c0,0 0.04485,0.04485 0.15314,0.15314c0.10829,0.10829 0.04485,0.04485 0.15314,0.15314c0.10829,0.10829 0.15314,0.15314 0.15314,0.30628c0,0.15314 -0.11721,0.48273 0,0.7657c0.08288,0.20009 0.08288,0.41247 0,0.61256c-0.0586,0.14148 0,0.30628 -0.15314,0.45942c-0.30628,0.30628 -0.48381,0.39979 -0.91884,0.61256c-0.49601,0.24259 -0.80082,0.35712 -1.37825,0.61256c-0.50495,0.22338 -1.07198,0.45942 -1.68453,0.61256c-0.61256,0.15314 -1.06644,0.17088 -1.53139,0.30628c-0.60623,0.17653 -1.07542,0.25015 -1.53139,0.30628c-0.62668,0.07715 -1.08427,0.20073 -1.53139,0.30628c-0.33327,0.07867 -0.78901,0.03593 -1.07198,0.15314c-0.20009,0.08288 -0.30628,0.15314 -0.30628,0.15314c-0.15314,0 -0.15314,0 -0.15314,0c0,0 0,-0.15314 0,-0.15314c0,0 -0.07447,-0.12615 -0.15314,-0.45942c-0.03518,-0.14904 0.10829,-0.35113 0,-0.45942c-0.10829,-0.10829 -0.03593,-0.17645 -0.15314,-0.45942c-0.08288,-0.20009 -0.15314,-0.15314 -0.15314,-0.30628c0,-0.15314 0,-0.30628 0,-0.30628c0,0 0,-0.15314 0,-0.15314c0,0 0.04485,-0.04485 0.15314,-0.15314c0.10829,-0.10829 0.04485,-0.04485 0.15314,-0.15314c0.10829,-0.10829 0,-0.15314 0.15314,-0.30628c0,0 0,0 0,0c0.15314,-0.15314 0.1648,-0.09454 0.30628,-0.15314c0.20009,-0.08288 0.30628,-0.15314 0.30628,-0.15314c0.15314,0 0.15314,0 0.30628,0c0,0 0,0 0,0c0.15314,0 0.15314,0 0.15314,0c0.15314,0 0.30628,0 0.30628,0c0.15314,0 0.15314,0 0.30628,0c0.15314,0 0.45942,0 0.61256,0c0.15314,0 0.15314,0.15314 0.30628,0.15314c0,0 0.15314,0 0.30628,0c0,0 0.15314,0.15314 0.30628,0.15314c0,0 0.15314,0 0.15314,0l0,0l0,0l0.15314,0" id="svg_5" stroke="#000" fill="none"/>
 </g>
</svg>